#N canvas 436 37 887 510 10;
#X obj 348 310 outlet;
#X obj 194 -121 inlet;
#X obj 355 -122 inlet;
#X text 194 -141 accelerate;
#X text 354 -142 drive normally;
#X obj 57 -118 inlet;
#X text 54 -138 Input Carspeed;
#X floatatom 101 -85 5 0 0 0 - - -;
#X obj 357 127 snapshot~;
#X obj 357 56 vline~;
#X obj 367 78 loadbang;
#X obj 367 100 metro 40;
#X floatatom 277 167 5 0 0 0 - - -;
#X obj 537 -123 inlet;
#X obj 708 -122 inlet;
#X text 537 -142 slow down;
#X text 706 -140 shift (up?);
#X floatatom 286 248 5 0 0 0 - - -;
#X msg 56 17 0;
#X obj 72 -59 s initialSpeed;
#X obj 357 154 r initialSpeed;
#X obj 390 -86 r currentSpeed;
#X obj 218 301 s currentSpeed;
#X obj 356 -55 +;
#X msg 355 -86 -100;
#X floatatom 373 -26 5 0 0 0 - - -;
#X obj 229 -65 r currentSpeed;
#X floatatom 212 -9 5 0 0 0 - - -;
#X msg 357 -2 \$1 10000;
#X obj 572 -85 r currentSpeed;
#X obj 538 -54 +;
#X floatatom 555 -25 5 0 0 0 - - -;
#X obj 709 4 s shiftValue;
#X obj 56 65 s shiftValue;
#X obj 737 -49 +;
#X obj 769 -84 r shiftValue;
#X msg 708 -70 -200;
#X obj 195 -38 +;
#X obj 286 196 +;
#X obj 362 196 r shiftValue;
#X obj 338 232 +;
#X msg 196 20 \$1 8000;
#X msg 194 -65 350;
#X msg 537 -85 -200;
#X msg 539 -1 \$1 3000;
#X connect 1 0 42 0;
#X connect 2 0 24 0;
#X connect 5 0 7 0;
#X connect 5 0 18 0;
#X connect 7 0 19 0;
#X connect 8 0 12 0;
#X connect 9 0 8 0;
#X connect 10 0 11 0;
#X connect 11 0 8 0;
#X connect 12 0 22 0;
#X connect 12 0 38 0;
#X connect 13 0 43 0;
#X connect 14 0 36 0;
#X connect 17 0 0 0;
#X connect 18 0 9 0;
#X connect 18 0 33 0;
#X connect 20 0 38 1;
#X connect 21 0 23 1;
#X connect 23 0 28 0;
#X connect 23 0 25 0;
#X connect 24 0 23 0;
#X connect 26 0 37 1;
#X connect 28 0 9 0;
#X connect 29 0 30 1;
#X connect 30 0 44 0;
#X connect 30 0 31 0;
#X connect 34 0 32 0;
#X connect 35 0 34 1;
#X connect 36 0 34 0;
#X connect 37 0 27 0;
#X connect 37 0 41 0;
#X connect 38 0 40 0;
#X connect 39 0 40 1;
#X connect 40 0 17 0;
#X connect 41 0 9 0;
#X connect 42 0 37 0;
#X connect 43 0 30 0;
#X connect 44 0 9 0;
