#N canvas 524 235 450 300 10;
#X obj 147 227 outlet;
#X obj 147 21 inlet;
#X obj 251 21 inlet;
#X text 145 1 accelerate;
#X text 250 1 drive normally;
#X obj 48 23 inlet;
#X text 45 3 Input Carspeed;
#X floatatom 49 56 5 0 0 0 - - -;
#X floatatom 147 57 5 0 0 0 - - -;
#X floatatom 246 60 5 0 0 0 - - -;
#X floatatom 76 176 5 0 0 0 - - -;
#X obj 106 110 +;
#X obj 188 109 +;
#X connect 1 0 8 0;
#X connect 2 0 9 0;
#X connect 5 0 7 0;
#X connect 7 0 11 1;
#X connect 7 0 12 1;
#X connect 8 0 11 0;
#X connect 9 0 12 0;
#X connect 11 0 0 0;
#X connect 11 0 10 0;
#X connect 12 0 0 0;
