#N canvas 303 22 813 752 10;
#X obj 340 311 carspeed;
#X obj 196 275 + 1;
#X obj 160 275 i;
#X floatatom 160 311 5 0 0 0 - - -;
#X msg 68 189 0;
#X obj -79 -21 cnv 15 800 100 empty empty Main_Patch 20 12 0 14 -260029
-66577 0;
#X obj -23 10 bng 15 250 50 0 startSound empty empty 17 7 0 10 -262144
-1 -1;
#X obj -23 45 bng 15 250 50 0 stopSound empty empty 17 7 0 10 -262144
-1 -1;
#X text 2 44 Stop;
#X text 1 8 Start;
#X floatatom 6 355 5 0 0 0 - - -;
#X obj 69 159 r stopSound;
#X obj 118 188 r startSound;
#X floatatom 24 190 5 0 0 0 - - -;
#X obj 130 19 hsl 128 15 0 1 0 0 sliderVol empty empty -2 -8 0 10 -262144
-1 -1 1600 1;
#X text 121 -9 Volume;
#X obj 180 533 r sliderVol;
#X text -81 189 Init Speed Value;
#X text 300 193 Video Timestamps;
#X obj 6 386 Playground;
#X obj 60 615 interior_mod;
#X obj 345 547 hsl 128 15 1 0 0 0 empty empty empty -2 -8 0 10 -262144
-1 -1 0 1;
#X obj 200 639 *~;
#X obj 288 644 *~;
#X obj 343 582 *~ -1;
#X obj 340 619 +~ 1;
#X text 365 528 Doppler-Effekt;
#X obj 345 380 r stopSound;
#X obj 230 683 dac~;
#X obj 304 673 write_to_file;
#X obj 394 617 r startSound;
#X obj 485 617 r stopSound;
#X floatatom 628 305 5 0 0 0 - - -;
#X obj 305 485 turbine_sample;
#X obj 628 256 / 100;
#X obj 628 280 - 1;
#X obj -51 495 reifen_wind;
#X msg 24 153 90;
#X obj 180 508 r startSound;
#N canvas 801 130 447 370 mixer 1;
#X obj 20 91 cnv 15 100 200 empty empty Wind 20 12 0 14 -4032 -66577
0;
#X obj 161 91 cnv 15 100 200 empty empty Synth 20 12 0 14 -4160 -262144
0;
#X obj 289 91 cnv 15 100 200 empty empty Turbine 20 12 0 14 -159808
-262144 0;
#X obj 98 100 vsl 15 128 0 1 0 0 empty empty empty 0 -9 0 10 -262144
-1 -1 4200 1;
#X obj 240 101 vsl 15 128 0 1 0 0 empty empty empty 0 -9 0 10 -262144
-1 -1 9100 1;
#X obj 367 112 vsl 15 128 0 1 0 0 empty empty empty 0 -9 0 10 -262144
-1 -1 3100 1;
#X obj 58 269 *~;
#X obj 199 269 *~;
#X obj 324 267 *~;
#X obj 198 326 outlet~;
#X obj 28 18 inlet~;
#X obj 167 20 inlet~;
#X obj 309 18 inlet~;
#X connect 3 0 6 1;
#X connect 4 0 7 1;
#X connect 5 0 8 1;
#X connect 6 0 9 0;
#X connect 7 0 9 0;
#X connect 8 0 9 0;
#X connect 10 0 6 0;
#X connect 11 0 7 0;
#X connect 12 0 8 0;
#X restore 33 542 pd mixer;
#X msg 126 274 1;
#X obj 54 430 *~;
#X obj 58 565 *~;
#X obj 24 119 loadbang;
#X obj -7 595 loadbang;
#X obj 344 563 sig~;
#X obj 180 555 sig~;
#X obj 160 238 metro 100;
#X obj 287 214 select 0 10 50 60 125 197 200 220 240 270 300 340 360
390 420 440 290;
#X obj 79 481 select 0 218 343;
#X connect 0 0 10 0;
#X connect 0 0 34 0;
#X connect 1 0 2 1;
#X connect 2 0 1 0;
#X connect 2 0 3 0;
#X connect 3 0 48 0;
#X connect 3 0 49 0;
#X connect 4 0 2 0;
#X connect 4 0 41 1;
#X connect 4 0 47 0;
#X connect 10 0 19 0;
#X connect 11 0 4 0;
#X connect 11 0 13 0;
#X connect 12 0 40 0;
#X connect 12 0 47 0;
#X connect 13 0 0 0;
#X connect 16 0 46 0;
#X connect 19 0 41 0;
#X connect 20 0 22 0;
#X connect 20 0 23 0;
#X connect 21 0 22 1;
#X connect 21 0 45 0;
#X connect 22 0 28 0;
#X connect 22 0 28 1;
#X connect 22 0 29 0;
#X connect 23 0 28 0;
#X connect 23 0 28 1;
#X connect 23 0 29 0;
#X connect 24 0 25 0;
#X connect 25 0 23 1;
#X connect 27 0 33 1;
#X connect 30 0 29 1;
#X connect 31 0 29 2;
#X connect 32 0 33 2;
#X connect 33 0 39 2;
#X connect 34 0 35 0;
#X connect 35 0 32 0;
#X connect 36 0 39 0;
#X connect 37 0 13 0;
#X connect 38 0 20 2;
#X connect 39 0 42 0;
#X connect 40 0 41 1;
#X connect 41 0 39 1;
#X connect 42 0 20 0;
#X connect 43 0 37 0;
#X connect 45 0 24 0;
#X connect 46 0 42 1;
#X connect 47 0 2 0;
#X connect 48 0 0 1;
#X connect 48 0 33 0;
#X connect 48 1 0 2;
#X connect 48 2 0 1;
#X connect 48 3 0 2;
#X connect 48 4 0 1;
#X connect 48 6 0 1;
#X connect 48 7 0 2;
#X connect 48 8 0 3;
#X connect 48 9 0 1;
#X connect 48 10 0 3;
#X connect 48 11 0 1;
#X connect 48 13 0 2;
#X connect 48 14 0 1;
#X connect 48 15 0 2;
#X connect 48 16 0 3;
#X connect 49 1 20 1;
#X connect 49 2 20 1;
