#N canvas 639 64 603 822 10;
#X obj 303 761 dac~;
#X obj 213 460 carspeed;
#X obj 196 275 + 1;
#X obj 160 275 i;
#X floatatom 160 311 5 0 0 0 - - -;
#X msg 68 189 0;
#X obj 160 238 metro 1000;
#X obj -79 -21 cnv 15 600 100 empty empty Main_Patch 20 12 0 14 -260029
-66577 0;
#X obj -23 10 bng 15 250 50 0 startSound empty empty 17 7 0 10 -262144
-1 -1;
#X obj -23 45 bng 15 250 50 0 stopSound empty empty 17 7 0 10 -262144
-1 -1;
#X text 2 44 Stop;
#X text 1 8 Start;
#X floatatom 186 517 5 0 0 0 - - -;
#X obj 69 159 r stopSound;
#X obj 118 188 r startSound;
#X floatatom 24 190 5 0 0 0 - - -;
#X obj 125 14 hsl 128 15 0 1 0 0 sliderVol empty empty -2 -8 0 10 -262144
-1 -1 12700 1;
#X text 121 -9 Volume;
#X obj 48 553 *~;
#X obj 137 545 r sliderVol;
#X floatatom 116 570 5 0 0 0 - - -;
#X text -81 189 Init Speed Value;
#X obj 160 363 select 0 1 5 6 13 18 20 22 24 27 30 34 36 39 42 44;
#X text 173 342 Video Timestamps;
#X obj -5 514 Playground;
#X obj 42 671 interior_mod;
#X obj 68 609 select 0 20 32;
#X obj 329 637 hsl 128 15 1 0 0 0 empty empty empty -2 -8 0 10 -262144
-1 -1 6700 1;
#X obj 282 725 *~;
#X obj 332 725 *~;
#X obj 327 671 *~ -1;
#X obj 327 699 +~ 1;
#X text 349 617 Doppler-Effekt;
#X connect 1 0 12 0;
#X connect 2 0 3 1;
#X connect 3 0 2 0;
#X connect 3 0 4 0;
#X connect 4 0 22 0;
#X connect 4 0 26 0;
#X connect 5 0 3 0;
#X connect 5 0 6 0;
#X connect 5 0 18 1;
#X connect 6 0 3 0;
#X connect 12 0 24 0;
#X connect 13 0 5 0;
#X connect 13 0 15 0;
#X connect 14 0 6 0;
#X connect 14 0 20 0;
#X connect 15 0 1 0;
#X connect 18 0 25 0;
#X connect 19 0 20 0;
#X connect 20 0 18 1;
#X connect 22 0 1 1;
#X connect 22 1 1 2;
#X connect 22 2 1 1;
#X connect 22 3 1 2;
#X connect 22 4 1 1;
#X connect 22 5 1 4;
#X connect 22 6 1 1;
#X connect 22 7 1 2;
#X connect 22 8 1 3;
#X connect 22 9 1 1;
#X connect 22 10 1 3;
#X connect 22 11 1 1;
#X connect 22 12 1 4;
#X connect 22 13 1 2;
#X connect 22 14 1 1;
#X connect 22 15 1 2;
#X connect 24 0 18 0;
#X connect 25 0 28 0;
#X connect 25 0 29 0;
#X connect 26 1 25 1;
#X connect 26 2 25 1;
#X connect 27 0 28 1;
#X connect 27 0 30 0;
#X connect 28 0 0 0;
#X connect 29 0 0 1;
#X connect 30 0 31 0;
#X connect 31 0 29 1;
