#N canvas 7 22 813 752 10;
#X obj 340 311 carspeed;
#X obj 196 275 + 1;
#X obj 160 275 i;
#X floatatom 160 311 5 0 0 0 - - -;
#X msg 68 189 0;
#X obj 160 238 metro 1000;
#X obj -79 -21 cnv 15 800 100 empty empty Main_Patch 20 12 0 14 -260029
-66577 0;
#X obj -23 10 bng 15 250 50 0 startSound empty empty 17 7 0 10 -262144
-1 -1;
#X obj -23 45 bng 15 250 50 0 stopSound empty empty 17 7 0 10 -262144
-1 -1;
#X text 2 44 Stop;
#X text 1 8 Start;
#X floatatom 197 389 5 0 0 0 - - -;
#X obj 69 159 r stopSound;
#X obj 118 188 r startSound;
#X floatatom 24 190 5 0 0 0 - - -;
#X obj 125 12 hsl 128 15 0 1 0 0 sliderVol empty empty -2 -8 0 10 -262144
-1 -1 4200 1;
#X text 121 -9 Volume;
#X obj 180 533 r sliderVol;
#X text -81 189 Init Speed Value;
#X obj 287 214 select 0 1 5 6 13 18 20 22 24 27 30 34 36 39 42 44;
#X text 300 193 Video Timestamps;
#X obj 6 386 Playground;
#X obj 55 592 interior_mod;
#X obj 79 481 select 0 20 32;
#X obj 345 548 hsl 128 15 1 0 0 0 empty empty empty -2 -8 0 10 -262144
-1 -1 6500 1;
#X obj 200 639 *~;
#X obj 288 644 *~;
#X obj 343 582 *~ -1;
#X obj 340 619 +~ 1;
#X text 365 528 Doppler-Effekt;
#X obj 617 225 r stopSound;
#X obj 230 683 dac~;
#X obj 304 673 write_to_file;
#X obj 394 617 r startSound;
#X obj 485 617 r stopSound;
#X floatatom 628 305 5 0 0 0 - - -;
#X obj 449 311 turbine_sample;
#X obj 628 256 / 100;
#X obj 680 283 - 1;
#X obj -51 495 reifen_wind;
#X msg 24 153 90;
#X obj 180 508 r startSound;
#N canvas 833 23 447 370 mixer 1;
#X obj 20 91 cnv 15 100 200 empty empty Wind 20 12 0 14 -4032 -66577
0;
#X obj 161 91 cnv 15 100 200 empty empty Synth 20 12 0 14 -4160 -262144
0;
#X obj 289 91 cnv 15 100 200 empty empty Turbine 20 12 0 14 -159808
-262144 0;
#X obj 98 100 vsl 15 128 0 1 0 0 empty empty empty 0 -9 0 10 -262144
-1 -1 6800 1;
#X obj 240 101 vsl 15 128 0 1 0 0 empty empty empty 0 -9 0 10 -262144
-1 -1 11000 1;
#X obj 367 112 vsl 15 128 0 1 0 0 empty empty empty 0 -9 0 10 -262144
-1 -1 4100 1;
#X obj 58 269 *~;
#X obj 199 269 *~;
#X obj 324 267 *~;
#X obj 198 326 outlet~;
#X obj 28 18 inlet~;
#X obj 167 20 inlet~;
#X obj 309 18 inlet~;
#X connect 3 0 6 1;
#X connect 4 0 7 1;
#X connect 5 0 8 1;
#X connect 6 0 9 0;
#X connect 7 0 9 0;
#X connect 8 0 9 0;
#X connect 10 0 6 0;
#X connect 11 0 7 0;
#X connect 12 0 8 0;
#X restore 33 542 pd mixer;
#X msg 126 274 1;
#X obj 54 430 *~;
#X obj 58 565 *~;
#X connect 0 0 11 0;
#X connect 0 0 37 0;
#X connect 1 0 2 1;
#X connect 2 0 1 0;
#X connect 2 0 3 0;
#X connect 3 0 19 0;
#X connect 3 0 23 0;
#X connect 4 0 2 0;
#X connect 4 0 5 0;
#X connect 4 0 44 1;
#X connect 5 0 2 0;
#X connect 11 0 21 0;
#X connect 12 0 4 0;
#X connect 12 0 14 0;
#X connect 13 0 5 0;
#X connect 13 0 43 0;
#X connect 14 0 0 0;
#X connect 17 0 45 1;
#X connect 19 0 0 1;
#X connect 19 1 0 2;
#X connect 19 1 36 0;
#X connect 19 2 0 1;
#X connect 19 3 0 2;
#X connect 19 4 0 1;
#X connect 19 6 0 1;
#X connect 19 7 0 2;
#X connect 19 8 0 3;
#X connect 19 9 0 1;
#X connect 19 10 0 3;
#X connect 19 11 0 1;
#X connect 19 13 0 2;
#X connect 19 14 0 1;
#X connect 19 15 0 2;
#X connect 21 0 44 0;
#X connect 22 0 25 0;
#X connect 22 0 26 0;
#X connect 23 1 22 1;
#X connect 23 2 22 1;
#X connect 24 0 25 1;
#X connect 24 0 27 0;
#X connect 25 0 31 0;
#X connect 25 0 31 1;
#X connect 25 0 32 0;
#X connect 26 0 31 0;
#X connect 26 0 31 1;
#X connect 26 0 32 0;
#X connect 27 0 28 0;
#X connect 28 0 26 1;
#X connect 30 0 36 1;
#X connect 33 0 32 1;
#X connect 34 0 32 2;
#X connect 35 0 36 2;
#X connect 36 0 42 2;
#X connect 37 0 38 0;
#X connect 38 0 35 0;
#X connect 39 0 42 0;
#X connect 40 0 14 0;
#X connect 41 0 22 2;
#X connect 42 0 45 0;
#X connect 43 0 44 1;
#X connect 44 0 42 1;
#X connect 45 0 22 0;
