#N canvas 0 22 566 643 10;
#X obj 18 588 dac~;
#X obj 213 460 carspeed;
#X obj 196 275 + 1;
#X obj 160 275 i;
#X floatatom 160 311 5 0 0 0 - - -;
#X msg 68 189 0;
#X obj 160 238 metro 1000;
#X obj -41 -22 cnv 15 300 100 empty empty Main_Patch 20 12 0 14 -187776
-66577 0;
#X obj -23 10 bng 15 250 50 0 startSound empty empty 17 7 0 10 -262144
-1 -1;
#X obj -23 45 bng 15 250 50 0 stopSound empty empty 17 7 0 10 -262144
-1 -1;
#X text 2 44 Stop;
#X text 1 8 Start;
#X obj 18 520 osc~;
#X floatatom 186 517 5 0 0 0 - - -;
#X obj 69 159 r stopSound;
#X obj 118 188 r startSound;
#X floatatom 23 189 5 0 0 0 - - -;
#X obj 124 11 hsl 128 15 0 1 0 0 sliderVol empty empty -2 -8 0 10 -262144
-1 -1 12700 1;
#X text 121 -9 Volume;
#X obj 48 553 *~;
#X obj 137 545 r sliderVol;
#X floatatom 116 570 5 0 0 0 - - -;
#X text -81 189 Init Speed Value;
#X text -6 496 TODO: Paste Sound Module here!;
#X text 157 330 TODO: Paste Video Timestamps here;
#X obj 160 363 select 0 1 5 6 13 18 20 22 24 27 30 34 36 39 42 44;
#X connect 1 0 13 0;
#X connect 2 0 3 1;
#X connect 3 0 2 0;
#X connect 3 0 4 0;
#X connect 4 0 25 0;
#X connect 5 0 3 0;
#X connect 5 0 6 0;
#X connect 5 0 19 1;
#X connect 6 0 3 0;
#X connect 12 0 19 0;
#X connect 13 0 12 0;
#X connect 14 0 5 0;
#X connect 14 0 16 0;
#X connect 15 0 6 0;
#X connect 15 0 21 0;
#X connect 16 0 1 0;
#X connect 19 0 0 0;
#X connect 19 0 0 1;
#X connect 20 0 21 0;
#X connect 21 0 19 1;
#X connect 25 0 1 1;
#X connect 25 1 1 2;
#X connect 25 2 1 1;
#X connect 25 3 1 2;
#X connect 25 4 1 1;
#X connect 25 5 1 4;
#X connect 25 6 1 1;
#X connect 25 7 1 2;
#X connect 25 8 1 3;
#X connect 25 9 1 1;
#X connect 25 10 1 3;
#X connect 25 11 1 1;
#X connect 25 12 1 4;
#X connect 25 13 1 2;
#X connect 25 14 1 1;
#X connect 25 15 1 2;
