#N canvas 502 38 801 836 10;
#X obj 213 460 carspeed;
#X obj 196 275 + 1;
#X obj 160 275 i;
#X floatatom 160 311 5 0 0 0 - - -;
#X msg 68 189 0;
#X obj 160 238 metro 1000;
#X obj -79 -21 cnv 15 800 100 empty empty Main_Patch 20 12 0 14 -260029
-66577 0;
#X obj -23 10 bng 15 250 50 0 startSound empty empty 17 7 0 10 -262144
-1 -1;
#X obj -23 45 bng 15 250 50 0 stopSound empty empty 17 7 0 10 -262144
-1 -1;
#X text 2 44 Stop;
#X text 1 8 Start;
#X floatatom 186 517 5 0 0 0 - - -;
#X obj 69 159 r stopSound;
#X obj 118 188 r startSound;
#X floatatom 24 190 5 0 0 0 - - -;
#X obj 125 12 hsl 128 15 0 1 0 0 sliderVol empty empty -2 -8 0 10 -262144
-1 -1 2000 1;
#X text 121 -9 Volume;
#X obj 48 553 *~;
#X obj 137 545 r sliderVol;
#X floatatom 116 570 5 0 0 0 - - -;
#X text -81 189 Init Speed Value;
#X obj 160 363 select 0 1 5 6 13 18 20 22 24 27 30 34 36 39 42 44;
#X text 173 342 Video Timestamps;
#X obj -5 514 Playground;
#X obj 42 671 interior_mod;
#X obj 68 609 select 0 20 32;
#X obj 329 637 hsl 128 15 1 0 0 0 empty empty empty -2 -8 0 10 -262144
-1 -1 5800 1;
#X obj 187 719 *~;
#X obj 275 724 *~;
#X obj 327 671 *~ -1;
#X obj 327 699 +~ 1;
#X text 349 617 Doppler-Effekt;
#X obj 227 594 *~;
#X obj 490 374 r stopSound;
#X obj 217 763 dac~;
#X obj 291 753 write_to_file;
#X obj 381 697 r startSound;
#X obj 472 697 r stopSound;
#X floatatom 501 454 5 0 0 0 - - -;
#X obj 322 460 turbine_sample;
#X obj 501 405 / 100;
#X obj 553 432 - 1;
#X obj 51 715 reifen_wind;
#X msg 24 153 90;
#X connect 0 0 11 0;
#X connect 0 0 40 0;
#X connect 1 0 2 1;
#X connect 2 0 1 0;
#X connect 2 0 3 0;
#X connect 3 0 21 0;
#X connect 3 0 25 0;
#X connect 4 0 2 0;
#X connect 4 0 5 0;
#X connect 4 0 17 1;
#X connect 5 0 2 0;
#X connect 11 0 23 0;
#X connect 12 0 4 0;
#X connect 12 0 14 0;
#X connect 13 0 5 0;
#X connect 13 0 19 0;
#X connect 14 0 0 0;
#X connect 17 0 24 0;
#X connect 18 0 19 0;
#X connect 18 0 32 1;
#X connect 19 0 17 1;
#X connect 21 0 0 1;
#X connect 21 1 0 2;
#X connect 21 1 39 0;
#X connect 21 2 0 1;
#X connect 21 3 0 2;
#X connect 21 4 0 1;
#X connect 21 6 0 1;
#X connect 21 7 0 2;
#X connect 21 8 0 3;
#X connect 21 9 0 1;
#X connect 21 10 0 3;
#X connect 21 11 0 1;
#X connect 21 13 0 2;
#X connect 21 14 0 1;
#X connect 21 15 0 2;
#X connect 23 0 17 0;
#X connect 24 0 27 0;
#X connect 24 0 28 0;
#X connect 25 1 24 1;
#X connect 25 2 24 1;
#X connect 26 0 27 1;
#X connect 26 0 29 0;
#X connect 27 0 34 0;
#X connect 27 0 34 1;
#X connect 27 0 35 0;
#X connect 28 0 34 0;
#X connect 28 0 34 1;
#X connect 28 0 35 0;
#X connect 29 0 30 0;
#X connect 30 0 28 1;
#X connect 32 0 34 1;
#X connect 32 0 34 0;
#X connect 32 0 35 0;
#X connect 33 0 39 1;
#X connect 36 0 35 1;
#X connect 37 0 35 2;
#X connect 38 0 39 2;
#X connect 39 0 32 0;
#X connect 40 0 41 0;
#X connect 41 0 38 0;
#X connect 42 0 34 0;
#X connect 42 0 34 1;
#X connect 43 0 14 0;
