#N canvas 0 22 1178 700 10;
#X obj 202 192 osc~;
#X text 324 13 Input (Power);
#X obj 205 437 s~ output;
#X obj 138 631 r~ output;
#N canvas 0 50 450 250 (subpatch) 0;
#X array array 64 float 4;
#X coords 0 -0.3 63 0.3 400 200 2 0 0;
#X restore 318 621 graph;
#X obj 67 775 tabsend~ array;
#X obj 800 530 *~;
#X obj 420 53 s power;
#X obj 799 494 pow~ 2;
#X obj 803 412 +~ 1;
#N canvas 679 58 956 989 hover 0;
#X obj 114 95 inlet;
#X text 116 27 First Inlet gives frequency \, second inlet is intensity
;
#X obj 113 206 *~;
#X obj 112 270 +~;
#X obj 112 328 outlet~;
#X obj 320 115 inlet;
#X obj 322 151 / 100;
#X obj 327 204 - 1;
#X obj 309 254 * -1;
#X obj 114 139 osc~;
#X connect 0 0 9 0;
#X connect 2 0 3 0;
#X connect 3 0 4 0;
#X connect 5 0 6 0;
#X connect 6 0 2 1;
#X connect 6 0 7 0;
#X connect 7 0 8 0;
#X connect 8 0 3 1;
#X connect 9 0 2 0;
#X restore 1199 356 pd hover;
#X obj 784 566 +~ 0.3;
#X floatatom 1445 221 5 0 0 0 - - -;
#X floatatom 1201 182 5 0 0 0 - - -;
#X obj 1205 293 / 100;
#X obj 804 385 *~ 1;
#X obj 804 438 /~ 2;
#X obj 276 59 s freq;
#X obj 202 50 r freq;
#X obj 208 301 *~;
#X obj 1061 400 cos~;
#X obj 1084 461 hip~ 0;
#X obj 1087 534 hip~ 700;
#X floatatom 278 42 5 0 0 0 - - -;
#X floatatom 436 15 5 0 0 0 - - -;
#X obj 745 163 sig~;
#N canvas 595 425 823 495 turbine 0;
#X obj 0 242 osc~;
#X obj 39 241 osc~;
#X obj 78 240 osc~;
#X obj 116 240 osc~;
#X obj 156 242 osc~;
#X obj 13 42 unpack f f f f f;
#X obj 0 181 sig~;
#X obj 38 181 sig~;
#X obj 78 180 sig~;
#X obj 116 180 sig~;
#X obj 155 180 sig~;
#X obj 0 210 *~;
#X obj 39 208 *~;
#X obj 79 206 *~;
#X obj 116 204 *~;
#X obj 156 205 *~;
#X obj 13 0 loadbang;
#X obj 77 330 outlet~;
#X obj 272 48 inlet~ engine speed;
#X msg 13 21 1760 2093 1318.51 2959.96 1975.53;
#X obj 19 278 *~ 0.5;
#X obj 137 277 *~ 0.25;
#X obj 75 310 clip~ -10 10;
#X connect 0 0 20 0;
#X connect 1 0 20 0;
#X connect 2 0 22 0;
#X connect 3 0 21 0;
#X connect 4 0 21 0;
#X connect 5 0 6 0;
#X connect 5 1 7 0;
#X connect 5 2 8 0;
#X connect 5 3 9 0;
#X connect 5 4 10 0;
#X connect 6 0 11 0;
#X connect 7 0 12 0;
#X connect 8 0 13 0;
#X connect 9 0 14 0;
#X connect 10 0 15 0;
#X connect 11 0 0 0;
#X connect 12 0 1 0;
#X connect 13 0 2 0;
#X connect 14 0 3 0;
#X connect 15 0 4 0;
#X connect 16 0 19 0;
#X connect 18 0 15 1;
#X connect 18 0 14 1;
#X connect 18 0 13 1;
#X connect 18 0 12 1;
#X connect 18 0 11 1;
#X connect 19 0 5 0;
#X connect 20 0 22 0;
#X connect 21 0 22 0;
#X connect 22 0 17 0;
#X restore 745 198 pd turbine;
#X obj 272 4 inlet;
#X obj 126 677 outlet~;
#N canvas 1151 58 765 461 turb_lower 0;
#X obj 47 265 osc~;
#X obj 86 264 osc~;
#X obj 125 263 osc~;
#X obj 163 263 osc~;
#X obj 203 265 osc~;
#X obj 60 65 unpack f f f f f;
#X obj 47 204 sig~;
#X obj 85 204 sig~;
#X obj 125 203 sig~;
#X obj 163 203 sig~;
#X obj 202 203 sig~;
#X obj 47 233 *~;
#X obj 86 231 *~;
#X obj 126 229 *~;
#X obj 163 227 *~;
#X obj 203 228 *~;
#X obj 60 23 loadbang;
#X obj 124 353 outlet~;
#X obj 319 71 inlet~ engine speed;
#X obj 66 301 *~ 0.5;
#X obj 184 300 *~ 0.25;
#X obj 122 333 clip~ -10 10;
#X msg 60 44 110 130.813 164.814 184.997 123.471;
#X connect 0 0 19 0;
#X connect 1 0 19 0;
#X connect 2 0 21 0;
#X connect 3 0 20 0;
#X connect 4 0 20 0;
#X connect 5 0 6 0;
#X connect 5 1 7 0;
#X connect 5 2 8 0;
#X connect 5 3 9 0;
#X connect 5 4 10 0;
#X connect 6 0 11 0;
#X connect 7 0 12 0;
#X connect 8 0 13 0;
#X connect 9 0 14 0;
#X connect 10 0 15 0;
#X connect 11 0 0 0;
#X connect 12 0 1 0;
#X connect 13 0 2 0;
#X connect 14 0 3 0;
#X connect 15 0 4 0;
#X connect 16 0 22 0;
#X connect 18 0 15 1;
#X connect 18 0 14 1;
#X connect 18 0 13 1;
#X connect 18 0 12 1;
#X connect 18 0 11 1;
#X connect 19 0 21 0;
#X connect 20 0 21 0;
#X connect 21 0 17 0;
#X connect 22 0 5 0;
#X restore 896 171 pd turb_lower;
#N canvas 4 58 733 413 turb_2 0;
#X obj 47 265 osc~;
#X obj 86 264 osc~;
#X obj 125 263 osc~;
#X obj 163 263 osc~;
#X obj 203 265 osc~;
#X obj 60 65 unpack f f f f f;
#X obj 47 204 sig~;
#X obj 85 204 sig~;
#X obj 125 203 sig~;
#X obj 163 203 sig~;
#X obj 202 203 sig~;
#X obj 47 233 *~;
#X obj 86 231 *~;
#X obj 126 229 *~;
#X obj 163 227 *~;
#X obj 203 228 *~;
#X obj 60 23 loadbang;
#X obj 124 353 outlet~;
#X obj 319 71 inlet~ engine speed;
#X obj 66 301 *~ 0.5;
#X obj 184 300 *~ 0.25;
#X msg 60 44 391.995 293.665 293.665 311.127 466.164;
#X obj 121 333 clip~ -5 5;
#X connect 0 0 19 0;
#X connect 1 0 19 0;
#X connect 2 0 22 0;
#X connect 3 0 20 0;
#X connect 4 0 20 0;
#X connect 5 0 6 0;
#X connect 5 1 7 0;
#X connect 5 2 8 0;
#X connect 5 3 9 0;
#X connect 5 4 10 0;
#X connect 6 0 11 0;
#X connect 7 0 12 0;
#X connect 8 0 13 0;
#X connect 9 0 14 0;
#X connect 10 0 15 0;
#X connect 11 0 0 0;
#X connect 12 0 1 0;
#X connect 13 0 2 0;
#X connect 14 0 3 0;
#X connect 15 0 4 0;
#X connect 16 0 21 0;
#X connect 18 0 15 1;
#X connect 18 0 14 1;
#X connect 18 0 13 1;
#X connect 18 0 12 1;
#X connect 18 0 11 1;
#X connect 19 0 22 0;
#X connect 20 0 22 0;
#X connect 21 0 5 0;
#X connect 22 0 17 0;
#X restore 836 194 pd turb_2;
#X floatatom 653 90 5 0 0 0 - - -;
#X obj 837 163 sig~;
#X text 495 53 max: ~170;
#X obj 498 78 r freq;
#X floatatom 520 220 5 0 0 0 - - -;
#X floatatom 405 264 5 0 0 0 - - -;
#X obj 392 195 * -1;
#X obj 499 103 / 170;
#X obj 746 264 *~;
#X obj 836 247 *~;
#X obj 637 196 sig~;
#X obj 695 239 sig~;
#X obj 745 317 +~;
#X obj 572 110 + 0.5;
#X obj 499 157 clip 0.5 1.5;
#X obj 393 224 + 1.5;
#X obj 744 359 hip~ 200;
#X obj 745 36 * 0.002;
#X connect 0 0 19 0;
#X connect 3 0 5 0;
#X connect 3 0 28 0;
#X connect 6 0 11 0;
#X connect 8 0 6 0;
#X connect 9 0 16 0;
#X connect 12 0 10 1;
#X connect 13 0 14 0;
#X connect 14 0 10 0;
#X connect 15 0 9 0;
#X connect 16 0 8 0;
#X connect 18 0 0 0;
#X connect 19 0 2 0;
#X connect 20 0 21 0;
#X connect 21 0 22 0;
#X connect 23 0 17 0;
#X connect 24 0 7 0;
#X connect 25 0 26 0;
#X connect 26 0 39 0;
#X connect 27 0 23 0;
#X connect 27 0 48 0;
#X connect 30 0 40 0;
#X connect 32 0 30 0;
#X connect 34 0 38 0;
#X connect 37 0 46 0;
#X connect 38 0 44 0;
#X connect 39 0 43 0;
#X connect 40 0 43 1;
#X connect 41 0 40 1;
#X connect 42 0 39 1;
#X connect 43 0 47 0;
#X connect 44 0 45 0;
#X connect 45 0 35 0;
#X connect 45 0 37 0;
#X connect 45 0 41 0;
#X connect 46 0 36 0;
#X connect 46 0 42 0;
#X connect 47 0 19 1;
#X connect 48 0 31 0;
#X connect 48 0 25 0;
#X connect 48 0 32 0;
