#N canvas -1046 300 450 300 10;
#X obj 29 65 readsf~;
#X obj 29 109 dac~;
#X msg 222 15 start;
#X msg 297 16 stop;
#X msg 28 14 open ../samples/turbine.wav;
#X connect 0 0 1 0;
#X connect 0 0 1 1;
#X connect 2 0 0 0;
#X connect 3 0 0 0;
#X connect 4 0 0 0;
