#N canvas -1894 484 450 300 10;
#X obj 23 132 readsf~;
#X msg 216 82 start;
#X msg 291 83 stop;
#X msg 22 81 open ../samples/turbine.wav;
#X obj 17 9 inlet;
#X obj 16 39 t b b;
#X obj 292 14 inlet;
#X obj 23 186 outlet~;
#X connect 0 0 7 0;
#X connect 1 0 0 0;
#X connect 2 0 0 0;
#X connect 3 0 0 0;
#X connect 4 0 5 0;
#X connect 5 0 1 0;
#X connect 5 1 3 0;
#X connect 6 0 2 0;
