#N canvas 830 417 450 300 10;
#X obj 23 132 readsf~;
#X msg 238 83 start;
#X msg 291 83 stop;
#X obj 17 9 inlet;
#X obj 16 39 t b b;
#X obj 292 14 inlet;
#X obj 175 256 outlet~;
#X msg 22 81 open ../samples/turbine_short.wav;
#N canvas 20 153 457 500 pitchshift 0;
#X obj 40 18 inlet~;
#X obj 161 396 outlet~;
#X obj 40 72 delwrite~ \$0-audio 200;
#X obj 245 64 -1;
#X obj 245 89 * -20;
#X obj 245 122 phasor~;
#X obj 245 149 +~ 0.5;
#X obj 245 179 wrap~;
#X obj 44 230 -~ 0.5;
#X obj 44 260 *~ 0.5;
#X obj 44 293 cos~;
#X obj 111 230 *~ 50;
#X obj 111 259 vd~ \$0-audio;
#X obj 95 338 *~;
#X obj 245 229 -~ 0.5;
#X obj 245 266 *~ 0.5;
#X obj 315 265 *~ 50;
#X obj 316 298 vd~ \$0-audio;
#X obj 250 339 *~;
#X obj 246 298 cos~;
#X obj 245 9 inlet;
#X obj 161 365 +~;
#X connect 0 0 2 0;
#X connect 3 0 4 0;
#X connect 4 0 5 0;
#X connect 5 0 6 0;
#X connect 5 0 8 0;
#X connect 5 0 11 0;
#X connect 6 0 7 0;
#X connect 7 0 14 0;
#X connect 7 0 16 0;
#X connect 8 0 9 0;
#X connect 9 0 10 0;
#X connect 10 0 13 0;
#X connect 11 0 12 0;
#X connect 12 0 13 1;
#X connect 13 0 21 0;
#X connect 14 0 15 0;
#X connect 15 0 19 0;
#X connect 16 0 17 0;
#X connect 17 0 18 1;
#X connect 18 0 21 1;
#X connect 19 0 18 0;
#X connect 20 0 3 0;
#X connect 21 0 1 0;
#X restore 174 218 pd pitchshift;
#X obj 391 201 inlet;
#X obj 135 27 bng 15 250 50 0 empty empty empty 17 7 0 10 -262144 -1
-1;
#X connect 0 0 8 0;
#X connect 0 1 10 0;
#X connect 1 0 0 0;
#X connect 2 0 0 0;
#X connect 3 0 4 0;
#X connect 4 0 1 0;
#X connect 4 1 7 0;
#X connect 5 0 2 0;
#X connect 7 0 0 0;
#X connect 8 0 6 0;
#X connect 9 0 8 1;
#X connect 10 0 4 0;
