#N canvas 110 319 450 300 10;
#X obj 23 132 readsf~;
#X msg 216 82 start;
#X msg 291 83 stop;
#X msg 22 81 open ../samples/turbine.wav;
#X obj 17 9 inlet;
#X obj 16 39 t b b;
#X obj 292 14 inlet;
#X obj 24 224 outlet~;
#X obj 119 168 *~;
#X obj 203 173 hsl 128 15 0 1 0 0 empty empty Volume -2 -8 0 10 -262144
-1 -1 3900 1;
#X connect 0 0 8 0;
#X connect 1 0 0 0;
#X connect 2 0 0 0;
#X connect 3 0 0 0;
#X connect 4 0 5 0;
#X connect 5 0 1 0;
#X connect 5 1 3 0;
#X connect 6 0 2 0;
#X connect 8 0 7 0;
#X connect 9 0 8 1;
