#N canvas 192 22 450 300 10;
#X obj 47 24 inlet~;
#X obj 120 23 inlet;
#X msg 121 94 start;
#X msg 328 93 stop;
#X obj 121 54 t b b;
#X obj 123 157 writesf~;
#X msg 178 93 open audio_output.wav;
#X obj 223 24 inlet;
#X connect 0 0 5 0;
#X connect 1 0 4 0;
#X connect 2 0 5 0;
#X connect 3 0 5 0;
#X connect 4 0 2 0;
#X connect 4 1 6 0;
#X connect 6 0 5 0;
#X connect 7 0 3 0;
